<svg id="Capa_1" enable-background="new 0 0 512 512" height="512" viewBox="0 0 512 512" width="512" xmlns="http://www.w3.org/2000/svg"><g><circle cx="121.859" cy="459.562" r="10.781"/><ellipse cx="242.862" cy="459.562" rx="10.781" ry="10.781" transform="matrix(.987 -.16 .16 .987 -70.478 44.836)"/><path d="m463.421 100.878h-57.622c-10.086 0-18.294 8.17-18.368 18.239h-8.707c-16.903 0-31.446 12.056-34.58 28.677l-18.229 97.395h-52.644l49.511-49.511c2.814-2.814 3.646-7.003 2.12-10.671-1.532-3.682-5.099-6.056-9.096-6.056-.032 0-.071 0-.109 0-6.214 0-12.054-2.417-16.447-6.811-5.098-5.097-7.498-12.183-6.632-19.276 5.268-6.266 4.964-15.656-.93-21.552l-126.645-126.644c-6.224-6.224-16.354-6.225-22.582 0l-103.868 103.868c-5.41 5.41-8.389 12.603-8.389 20.254s2.979 14.844 8.389 20.254l77.95 77.95c2.935 2.934 7.694 2.936 10.632 0 2.935-2.935 2.935-7.695 0-10.631l-77.951-77.95c-2.57-2.57-3.986-5.987-3.986-9.622s1.415-7.053 3.987-9.623l103.866-103.868c.364-.364.958-.364 1.32 0l126.643 126.643c.364.364.364.957 0 1.32l-101.83 101.926h-139.876c-2.088-.07-4.243.142-6.979 2.671-1.429 1.694-2.037 3.932-1.663 6.116l20.813 121.46c.948 5.553 5.726 9.584 11.361 9.584h236.861l-6.624 35.392h-15.42c-9.27-8.257-21.474-13.288-34.835-13.288-13.362 0-25.565 5.031-34.835 13.288h-51.333c-9.27-8.257-21.473-13.288-34.834-13.288-13.362 0-25.565 5.031-34.835 13.288h-19.686c-4.152 0-7.517 3.366-7.517 7.517s3.365 7.517 7.517 7.517h7.98c-3.759 7.225-5.898 15.423-5.898 24.116 0 28.914 23.524 52.438 52.439 52.438 28.914 0 52.438-23.524 52.438-52.438 0-8.693-2.139-16.89-5.898-24.116h27.922c-3.759 7.225-5.898 15.423-5.898 24.116 0 28.914 23.524 52.438 52.439 52.438 7.393 0 14.543-1.51 21.253-4.487 3.795-1.685 5.506-6.126 3.822-9.921-1.684-3.794-6.126-5.502-9.92-3.822-4.778 2.12-9.876 3.195-15.155 3.195-20.624 0-37.404-16.779-37.404-37.404s16.78-37.404 37.404-37.404 37.404 16.779 37.404 37.404c0 5.08-.998 10.002-2.967 14.629-1.625 3.82.154 8.235 3.975 9.86 3.823 1.628 8.236-.155 9.86-3.974 2.765-6.499 4.167-13.401 4.167-20.515 0-8.693-2.138-16.89-5.898-24.116h6.626c5.545 0 10.31-3.955 11.331-9.406l51.559-275.471c1.794-9.514 10.123-16.419 19.804-16.419h8.704c.039 10.099 8.264 18.304 18.371 18.304h57.622c10.132 0 18.375-8.244 18.375-18.376v-14.826c0-10.13-8.244-18.373-18.375-18.373zm-341.561 396.087c-20.624 0-37.404-16.779-37.404-37.404s16.78-37.404 37.404-37.404 37.403 16.779 37.403 37.404-16.779 37.404-37.403 37.404zm192.475-189.918h-54.05l3.422-46.824h59.392zm-121.683 62.938v-47.903h51.458l-3.501 47.903zm-63.804 0-3.502-47.903h52.271v47.903zm20.925-109.762 27.845 27.845v18.98h-53.37l-3.423-46.824h28.948zm42.879 21.438v-21.438h44.32l-20.065 20.065c-3.446 3.446-8.029 5.345-12.904 5.345-4.176 0-8.134-1.404-11.351-3.972zm0 25.386v-8.36c3.591 1.3 7.419 1.98 11.351 1.98 8.891 0 17.249-3.462 23.535-9.748l20.336-20.336-2.665 36.464zm112.126-114.63-52.772 52.771h-51.615l78.584-78.585c1.785 6.011 5.051 11.578 9.64 16.168 4.584 4.583 10.12 7.86 16.163 9.646zm-199.029 67.806 3.423 46.824h-54.118l-8.023-46.824zm-48.119 61.859h52.641l3.502 47.903h-47.934zm198.055 47.903 3.501-47.903h52.335l-8.966 47.903zm211.076-235.906c0 1.842-1.499 3.341-3.341 3.341h-57.622c-1.842 0-3.341-1.499-3.341-3.341v-14.826c0-1.842 1.499-3.341 3.341-3.341h57.622c1.842 0 3.341 1.499 3.341 3.341z"/><path d="m157.037 99.679-33.488 33.487c-2.935 2.935-2.935 7.695 0 10.631 1.468 1.468 3.392 2.202 5.316 2.202 1.923 0 3.848-.734 5.316-2.202l33.488-33.487c2.935-2.935 2.935-7.695 0-10.631-2.937-2.936-7.696-2.936-10.632 0z"/><path d="m145.399 165.648c1.468 1.468 3.393 2.202 5.316 2.202s3.848-.734 5.316-2.202l33.488-33.488c2.935-2.935 2.935-7.695 0-10.631-2.936-2.935-7.695-2.935-10.632 0l-33.488 33.488c-2.935 2.936-2.935 7.696 0 10.631z"/></g></svg>